<svg xmlns="http://www.w3.org/2000/svg" viewBox="0 0 64 64">
  <defs>
    <linearGradient id="g" x1="0%" y1="0%" x2="100%" y2="100%">
      <stop offset="0%" stop-color="#f0b429"/>
      <stop offset="100%" stop-color="#ff8c42"/>
    </linearGradient>
  </defs>
  <rect width="64" height="64" rx="14" fill="url(#g)"/>
  <path d="M14 22h36a4 4 0 0 1 4 4v18a4 4 0 0 1-4 4H18a4 4 0 0 1-4-4V22z" fill="#1e1b3a" opacity="0.9"/>
  <path d="M14 26a4 4 0 0 1 4-4h28a4 4 0 0 1 4 4v2H14v-2z" fill="#f0b429" opacity="0.85"/>
  <rect x="38" y="32" width="12" height="6" rx="3" fill="#f0b429" opacity="0.7"/>
  <circle cx="44" cy="35" r="2" fill="#1e1b3a"/>
</svg>
